<svg width="148" height="190" viewBox="0 0 148 190" fill="none" xmlns="http://www.w3.org/2000/svg">
<ellipse cx="74" cy="65.0556" rx="74" ry="65.0556" transform="rotate(180 74 65.0556)" fill="#30E1A6"/>
<path d="M70.8345 155.829C67.4206 169.608 41.8751 183.973 41.8751 183.973C41.8751 183.973 38.6851 155.279 47.4483 144.359C53.5688 136.732 64.7342 138.323 64.7342 138.323C64.7342 138.323 73.2609 146.035 70.8345 155.829Z" fill="#4B47B8"/>
<path d="M58.5846 151.857C48.6375 159.196 24.2062 157.453 24.2062 157.453C24.2062 157.453 38.3343 137.769 50.0915 134.541C58.3031 132.287 64.547 138.074 64.547 138.074C64.547 138.074 65.6545 146.641 58.5846 151.857Z" fill="#3935A1"/>
</svg>
