<svg width="195" height="195" viewBox="0 0 195 195" fill="none" xmlns="http://www.w3.org/2000/svg">
<path d="M135.522 56.8262C151.639 67.0721 164.535 79.2454 170.966 93.4878C176.152 104.973 178.428 120.504 178.605 134.384C178.693 141.295 178.26 147.699 177.442 152.871C176.604 158.169 175.421 161.78 174.249 163.464C172.424 166.086 169.093 168.72 164.531 171.045C160.012 173.347 154.471 175.25 148.439 176.529C136.338 179.095 122.572 179.087 111.453 175.074C75.9843 162.273 51.8844 121.815 36.5833 83.7798C28.9706 64.8563 23.6163 46.7344 20.1653 33.3375C18.4406 26.6422 17.1934 21.134 16.3783 17.3063C16.1967 16.4535 16.0377 15.6839 15.8985 15.0035C16.6062 15.1287 17.4214 15.2773 18.3364 15.4465C22.0083 16.1255 27.29 17.1625 33.7143 18.594C46.5683 21.4584 63.9748 25.8962 82.2078 32.1875C100.454 38.4835 119.451 46.6099 135.522 56.8262Z" fill="#6D6AD7" stroke="#FDE667" stroke-width="5"/>
<line y1="-2.5" x2="71.5833" y2="-2.5" transform="matrix(0.303865 0.952715 -0.947054 0.321075 49.9459 5.53076)" stroke="#FDE667" stroke-width="5"/>
<line y1="-2.5" x2="74.4456" y2="-2.5" transform="matrix(0.967308 -0.253604 0.237779 0.971319 79.9601 166.939)" stroke="#FDE667" stroke-width="5"/>
<line y1="-2.5" x2="69.7395" y2="-2.5" transform="matrix(0.145989 0.989286 -0.987245 0.159206 88.7993 27.2573)" stroke="#FDE667" stroke-width="5"/>
<line y1="-2.5" x2="72.6345" y2="-2.5" transform="matrix(-0.0262631 0.999655 -0.999809 -0.0195406 122.645 45.1463)" stroke="#FDE667" stroke-width="5"/>
<line y1="-2.5" x2="71.1625" y2="-2.5" transform="matrix(0.941533 0.336922 -0.330583 0.943777 7.45886 50.2617)" stroke="#FDE667" stroke-width="5"/>
<line y1="-2.5" x2="75.9026" y2="-2.5" transform="matrix(0.989683 0.143273 -0.144851 0.989453 26.1047 88.7059)" stroke="#FDE667" stroke-width="5"/>
<line y1="-2.5" x2="76.5641" y2="-2.5" transform="matrix(0.992443 -0.122707 0.110675 0.993857 46.9952 130.48)" stroke="#FDE667" stroke-width="5"/>
<line y1="-2.5" x2="239.198" y2="-2.5" transform="matrix(0.720441 0.693517 -0.679215 0.73394 6.4267 9.21436)" stroke="#FDE667" stroke-width="5"/>
<line y1="-2.5" x2="69.1183" y2="-2.5" transform="matrix(-0.25995 0.965622 -0.964689 -0.263393 167.713 79.6868)" stroke="#FDE667" stroke-width="5"/>
</svg>
