<svg width="195" height="195" viewBox="0 0 195 195" fill="none" xmlns="http://www.w3.org/2000/svg">
<path d="M135.522 138.174C151.639 127.928 164.535 115.755 170.966 101.512C176.152 90.0266 178.428 74.4956 178.605 60.6157C178.693 53.7048 178.26 47.301 177.442 42.1288C176.604 36.8314 175.421 33.2204 174.249 31.5365C172.424 28.9146 169.093 26.2797 164.531 23.9552C160.012 21.6531 154.471 19.7501 148.439 18.471C136.338 15.9047 122.572 15.9129 111.453 19.926C75.9843 32.7267 51.8844 73.1855 36.5833 111.22C28.9706 130.144 23.6163 148.266 20.1653 161.663C18.4406 168.358 17.1934 173.866 16.3783 177.694C16.1967 178.547 16.0377 179.316 15.8985 179.997C16.6062 179.871 17.4214 179.723 18.3364 179.554C22.0083 178.875 27.29 177.838 33.7143 176.406C46.5683 173.542 63.9748 169.104 82.2078 162.813C100.454 156.517 119.451 148.39 135.522 138.174Z" fill="#6D6AD7" stroke="#30E1A6" stroke-width="5"/>
<line y1="-2.5" x2="71.5833" y2="-2.5" transform="matrix(0.303865 -0.952715 -0.947054 -0.321075 49.9459 189.469)" stroke="#30E1A6" stroke-width="5"/>
<line y1="-2.5" x2="74.4456" y2="-2.5" transform="matrix(0.967308 0.253604 0.237779 -0.971319 79.9601 28.0605)" stroke="#30E1A6" stroke-width="5"/>
<line y1="-2.5" x2="69.7395" y2="-2.5" transform="matrix(0.145989 -0.989286 -0.987245 -0.159206 88.7993 167.743)" stroke="#30E1A6" stroke-width="5"/>
<line y1="-2.5" x2="72.6345" y2="-2.5" transform="matrix(-0.0262631 -0.999655 -0.999809 0.0195406 122.645 149.854)" stroke="#30E1A6" stroke-width="5"/>
<line y1="-2.5" x2="71.1625" y2="-2.5" transform="matrix(0.941533 -0.336922 -0.330583 -0.943777 7.45886 144.738)" stroke="#30E1A6" stroke-width="5"/>
<line y1="-2.5" x2="75.9026" y2="-2.5" transform="matrix(0.989683 -0.143273 -0.144851 -0.989453 26.1047 106.294)" stroke="#30E1A6" stroke-width="5"/>
<line y1="-2.5" x2="76.5641" y2="-2.5" transform="matrix(0.992443 0.122707 0.110675 -0.993857 46.9952 64.5197)" stroke="#30E1A6" stroke-width="5"/>
<line y1="-2.5" x2="239.198" y2="-2.5" transform="matrix(0.720441 -0.693517 -0.679215 -0.73394 6.4267 185.786)" stroke="#30E1A6" stroke-width="5"/>
<line y1="-2.5" x2="69.1183" y2="-2.5" transform="matrix(-0.25995 -0.965622 -0.964689 0.263393 167.713 115.313)" stroke="#30E1A6" stroke-width="5"/>
</svg>
