<svg width="302" height="688" viewBox="0 0 302 688" fill="none" xmlns="http://www.w3.org/2000/svg">
<path d="M105.094 10.1849C105.094 10.1849 135.297 17.4483 140.807 31.8275C143.018 37.5974 142.207 46.8453 140.702 48.7864C138.602 51.4942 130.847 52.8485 125.637 50.4767C109.24 43.0117 105.094 10.1849 105.094 10.1849Z" fill="#3935A1"/>
<path d="M194.597 9.97664C194.597 9.97664 164.393 17.24 158.884 31.6193C156.673 37.3891 157.483 46.637 158.988 48.5782C161.089 51.286 168.843 52.6403 174.053 50.2684C190.45 42.8034 194.597 9.97664 194.597 9.97664Z" fill="#3935A1"/>
<path d="M58.9898 54.3626C58.9898 54.3626 117.013 52.8047 133.077 74.5911C139.523 83.3332 141.93 99.3397 140.004 103.311C137.318 108.852 123.772 114.694 113.294 113.071C80.3148 107.963 58.9898 54.3626 58.9898 54.3626Z" fill="#3935A1"/>
<path d="M239.192 54.3626C239.192 54.3626 181.168 52.8047 165.105 74.5911C158.659 83.3332 156.252 99.3397 158.178 103.311C160.864 108.852 174.41 114.694 184.888 113.071C217.867 107.963 239.192 54.3626 239.192 54.3626Z" fill="#3935A1"/>
<path d="M50.6414 367.266C73.1265 249.078 39.4018 122.666 149.636 122.666C252.56 122.666 223.332 245.909 250.146 367.266C276.961 488.623 330.453 537.139 282.488 621.483C231.829 710.568 74.58 709.776 20.8416 621.483C-30.745 536.726 26.7418 492.888 50.6414 367.266Z" fill="#6D6AD7"/>
<path d="M149.233 122.669C149.233 122.669 173.521 122.239 189.492 131.589C217.428 147.943 225.644 179.163 230.574 209.641C239.169 262.781 236.382 292.152 248.65 359.797C258.895 416.292 289.361 480.963 297.947 520.36C309.45 573.138 295.482 626.812 247.006 660.11C198.53 693.408 149.233 687.614 149.233 687.614V122.669Z" fill="#30E1A6"/>
<ellipse cx="190.231" cy="563.556" rx="16.3992" ry="8.8889" fill="#3935A1"/>
<ellipse cx="190.231" cy="522.667" rx="16.3992" ry="8.8889" fill="#3935A1"/>
<ellipse cx="190.231" cy="483.556" rx="16.3992" ry="8.8889" fill="#3935A1"/>
</svg>
