<svg width="142" height="328" viewBox="0 0 142 328" fill="none" xmlns="http://www.w3.org/2000/svg">
<path d="M49.1517 323.145C49.1517 323.145 63.2777 319.682 65.8546 312.827C66.8886 310.076 66.5096 305.667 65.8055 304.742C64.8232 303.451 61.1966 302.805 58.7599 303.936C51.091 307.495 49.1517 323.145 49.1517 323.145Z" fill="#FFDA09"/>
<path d="M91.0142 323.244C91.0142 323.244 76.8882 319.781 74.3113 312.926C73.2773 310.175 73.6563 305.766 74.3604 304.841C75.3427 303.55 78.9693 302.904 81.406 304.035C89.0749 307.594 91.0142 323.244 91.0142 323.244Z" fill="#FFDA09"/>
<path d="M27.5886 302.083C27.5886 302.083 54.726 302.826 62.2389 292.439C65.2536 288.271 66.3792 280.641 65.4786 278.747C64.2222 276.106 57.887 273.321 52.9862 274.094C37.5622 276.53 27.5886 302.083 27.5886 302.083Z" fill="#FFDA09"/>
<path d="M111.868 302.083C111.868 302.083 84.7309 302.826 77.2179 292.439C74.2033 288.271 73.0776 280.641 73.9783 278.747C75.2346 276.106 81.5699 273.321 86.4706 274.094C101.895 276.53 111.868 302.083 111.868 302.083Z" fill="#FFDA09"/>
<path d="M23.6848 152.906C34.201 209.251 18.4281 269.516 69.9844 269.516C118.121 269.516 104.451 210.762 116.993 152.906C129.534 95.0508 154.551 71.9214 132.119 31.7111C108.425 -10.7591 34.8808 -10.3812 9.74756 31.7111C-14.3793 72.118 12.507 93.0174 23.6848 152.906Z" fill="#FFDA09"/>
</svg>
