<svg width="359" height="322" viewBox="0 0 359 322" fill="none" xmlns="http://www.w3.org/2000/svg">
<path d="M38.2663 261.911C99.0646 350.997 215.577 332.532 293.046 261.911C328.482 229.607 358.019 204.679 358.976 153.212C359.963 100.104 330.594 71.3614 293.046 39.4566C252.835 5.28903 219.297 1.03287 169.009 0.274323C116.193 -0.522308 76.0589 -2.28137 38.2663 39.4566C-16.6878 100.148 -8.66567 193.142 38.2663 261.911Z" fill="#252363"/>
<path d="M191.587 45.8414C191.587 45.8414 150.847 56.4681 136.829 65.0588C125.129 72.2291 119.562 84.655 131.989 91.1736C144.38 97.6736 160.97 91.2285 171.694 83.511C186.002 73.2138 191.587 45.8414 191.587 45.8414Z" fill="#FDE667"/>
<path d="M82.7674 188.226C82.7674 188.226 130.004 156.21 141.696 138.285C151.455 123.325 147.766 103.586 124.335 99.6878C100.972 95.8004 83.6946 111.803 75.8093 127.118C65.2881 147.554 82.7674 188.226 82.7674 188.226Z" fill="#FFDA09"/>
<path d="M15.3644 39.9666C15.3644 39.9666 27.6809 75.2179 42.1347 88.2901C54.1986 99.2008 78.6017 106.115 95.0519 97.2269C111.455 88.3646 102.055 73.6053 88.626 63.3864C70.7081 49.7514 15.3644 39.9666 15.3644 39.9666Z" fill="#FFDA09"/>
</svg>
