<svg width="166" height="166" viewBox="0 0 166 166" fill="none" xmlns="http://www.w3.org/2000/svg">
<circle cx="83" cy="83" r="83" fill="#FFDA09"/>
<path d="M82.9998 18.3572C118.701 18.3572 147.643 47.2986 147.643 82.9998C147.643 118.701 118.701 147.643 82.9998 147.643C47.2987 147.643 18.3572 118.701 18.3572 82.9998C18.3574 47.2987 47.2987 18.3573 82.9998 18.3572Z" fill="#3935A1" stroke="#6D6AD7" stroke-width="13"/>
<path d="M82.9996 73.9885C87.124 73.9885 102.766 31.54 101.483 28.8128C100.312 26.3229 95.5682 22.9762 82.9996 23.0029C70.431 23.0295 65.9523 26.3228 64.5161 28.8128C63.08 31.3029 78.7317 73.9885 82.9996 73.9885Z" fill="#30E1A6"/>
<path d="M91.5371 83.0791C91.5371 87.2035 133.986 102.846 136.713 101.563C139.203 100.391 142.549 95.6477 142.523 83.0791C142.496 70.5106 139.203 66.0318 136.713 64.5957C134.223 63.1595 91.5371 78.8113 91.5371 83.0791Z" fill="#30E1A6"/>
<path d="M73.7515 83.0791C73.7515 87.2035 31.303 102.846 28.5758 101.563C26.0859 100.391 22.7392 95.6477 22.7659 83.0791C22.7925 70.5106 26.0858 66.0318 28.5758 64.5957C31.0659 63.1595 73.7515 78.8113 73.7515 83.0791Z" fill="#30E1A6"/>
<path d="M83.0791 92.0115C87.2035 92.0115 102.845 134.46 101.563 137.187C100.391 139.677 95.6477 143.024 83.0791 142.997C70.5105 142.971 66.0318 139.677 64.5957 137.187C63.1595 134.697 78.8113 92.0115 83.0791 92.0115Z" fill="#30E1A6"/>
<path d="M89.6276 88.7991C92.6127 85.9531 133.225 105.883 134.178 108.742C135.049 111.352 133.925 117.048 124.809 125.701C115.694 134.355 110.18 135.062 107.423 134.25C104.665 133.439 86.5386 91.744 89.6276 88.7991Z" fill="#30E1A6"/>
<path d="M76.1224 89.1656C73.1372 86.3197 32.525 106.249 31.5717 109.108C30.7013 111.719 31.8253 117.414 40.9405 126.068C50.0557 134.721 55.5697 135.428 58.3274 134.617C61.0851 133.806 79.2113 92.1106 76.1224 89.1656Z" fill="#30E1A6"/>
<path d="M77.7034 76.5967C80.5494 73.6116 60.6197 32.9993 57.7605 32.046C55.1501 31.1756 49.4547 32.2996 40.8012 41.4148C32.1477 50.53 31.4408 56.0441 32.2521 58.8018C33.0633 61.5595 74.7584 79.6857 77.7034 76.5967Z" fill="#30E1A6"/>
<path d="M88.6915 76.1224C85.8455 73.1372 105.775 32.525 108.634 31.5717C111.245 30.7013 116.94 31.8253 125.594 40.9405C134.247 50.0557 134.954 55.5697 134.143 58.3274C133.332 61.0851 91.6364 79.2113 88.6915 76.1224Z" fill="#30E1A6"/>
<circle cx="83.0001" cy="82.9999" r="4.74286" fill="#30E1A6"/>
</svg>
