<svg width="540" height="515" viewBox="0 0 540 515" fill="none" xmlns="http://www.w3.org/2000/svg">
<path d="M13.027 226.706C26.6516 163.171 90.7056 61.4362 184.878 44.7294C286.161 26.7612 379.306 38.7722 465.69 99.3989C519.074 136.865 544.303 198.798 537.356 272.2C510.551 555.404 166.872 551.103 76.2829 458.765C-6.35184 374.534 -5.25489 311.96 13.027 226.706Z" fill="#6D6AD7"/>
<path d="M122.719 69.5797C191.826 24.0851 310.275 35.4477 355.267 47.0233C610.85 112.78 526.753 328.399 526.753 328.399C526.753 328.399 530.252 48.0069 229.487 90.9883C18.1462 121.19 8.27391 349.808 8.27391 349.808C8.27391 349.808 -45.8409 180.546 122.719 69.5797Z" fill="#4B47B8"/>
<path d="M236.306 7.65791C236.306 7.65791 239.359 1.24026e-05 253.619 0C266.051 -1.08125e-05 271.821 6.59577 271.408 7.65791C250.566 61.1805 260.804 143.758 260.804 143.758H253.126C253.126 143.758 218.756 68.4443 236.306 7.65791Z" fill="#3935A1"/>
<path d="M271.535 8.02839C271.535 12.0401 264.043 14.1453 254.35 14.1453C244.657 14.1453 236.434 12.0401 236.434 8.02839C236.434 4.01671 243.926 0 253.619 0C263.312 0 271.535 4.01671 271.535 8.02839Z" fill="#252363"/>
<path d="M271.838 37.1878C296.023 20.2313 354.23 34.0275 354.23 34.0275C354.23 34.0275 319.318 84.0833 291.061 88.8496C271.325 92.1785 256.773 73.6721 256.773 73.6721C256.773 73.6721 254.648 49.2394 271.838 37.1878Z" fill="#FDE667"/>
<path d="M284.724 61.0207C309.803 63.6267 344.051 101.366 344.051 101.366C344.051 101.366 295.619 112.345 273.512 100.63C258.071 92.4485 256.708 74.336 256.708 74.336C256.708 74.336 266.9 59.1686 284.724 61.0207Z" fill="#FFDA09"/>
</svg>
