<svg width="142" height="328" viewBox="0 0 142 328" fill="none" xmlns="http://www.w3.org/2000/svg">
<path d="M49.1517 4.85512C49.1517 4.85512 63.2777 8.31785 65.8546 15.173C66.8886 17.9237 66.5096 22.3325 65.8055 23.2579C64.8232 24.5489 61.1966 25.1945 58.7599 24.0637C51.091 20.5049 49.1517 4.85512 49.1517 4.85512Z" fill="#3935A1"/>
<path d="M91.0142 4.75625C91.0142 4.75625 76.8882 8.21897 74.3114 15.0741C73.2774 17.8248 73.6563 22.2336 74.3604 23.1591C75.3427 24.45 78.9694 25.0956 81.406 23.9649C89.0749 20.406 91.0142 4.75625 91.0142 4.75625Z" fill="#3935A1"/>
<path d="M27.5886 25.9173C27.5886 25.9173 54.7259 25.1746 62.2389 35.561C65.2536 39.7287 66.3792 47.3596 65.4786 49.253C64.2222 51.8943 57.887 54.6796 52.9862 53.9058C37.5622 51.4705 27.5886 25.9173 27.5886 25.9173Z" fill="#3935A1"/>
<path d="M111.868 25.9173C111.868 25.9173 84.7309 25.1746 77.2179 35.561C74.2032 39.7287 73.0776 47.3596 73.9783 49.253C75.2346 51.8943 81.5699 54.6796 86.4706 53.9058C101.895 51.4705 111.868 25.9173 111.868 25.9173Z" fill="#3935A1"/>
<path d="M23.6848 175.094C34.201 118.749 18.4281 58.4839 69.9844 58.4839C118.121 58.4838 104.451 117.238 116.993 175.094C129.534 232.949 154.551 256.079 132.119 296.289C108.425 338.759 34.8808 338.381 9.74756 296.289C-14.3793 255.882 12.507 234.983 23.6848 175.094Z" fill="#3935A1"/>
</svg>
