<svg width="175" height="168" viewBox="0 0 175 168" fill="none" xmlns="http://www.w3.org/2000/svg">
<path d="M32.3482 17.7621C62.7369 -9.09094 136.41 -5.02759 163.582 26.7756C192.649 60.7976 156.657 111.315 127.59 145.337C100.418 177.14 62.2758 172.99 32.3482 145.337C12.083 126.612 -1.99764 106.722 0.231924 75.3094C2.17029 48 14.4583 33.5706 32.3482 17.7621Z" fill="#30E1A6"/>
<path d="M115.531 127.548C115.531 127.548 100.913 111.097 97.9713 101.141C95.5157 92.8311 98.1613 81.0306 106.75 77.5529C115.313 74.0851 120.37 82.6278 122.135 91.2412C124.492 102.734 115.531 127.548 115.531 127.548Z" fill="#FDE667"/>
<path d="M101.79 22.3558C101.79 22.3558 106.13 45.1075 106.092 55.4037C106.061 63.9976 103.249 72.5949 98.8963 70.5365C94.5564 68.4839 93.4462 58.16 93.8305 49.7105C94.3433 38.4365 101.79 22.3558 101.79 22.3558Z" fill="#FDE667"/>
<path d="M54.6087 17.567C54.6087 17.567 78.0366 34.9021 86.017 45.8035C92.6778 54.9025 95.6996 68.2508 88.3937 72.7282C81.1088 77.1928 71.6034 68.015 65.5173 58.5292C57.3967 45.8725 54.6087 17.567 54.6087 17.567Z" fill="#4B47B8"/>
<path d="M62.1094 114.974C62.1094 114.974 68.8658 92.7907 74.6986 84.9465C79.5669 78.3993 88.2919 74.8981 93.1698 81.2467C98.0338 87.5772 93.7769 96.7012 88.5004 102.751C81.4601 110.823 62.1094 114.974 62.1094 114.974Z" fill="#4B47B8"/>
<path d="M173.699 65.8096C173.699 65.8096 146.076 78.1539 133.013 78.3579C122.11 78.5281 110.421 71.2221 111.807 59.4587C113.19 47.7289 125.966 44.4376 136.785 45.2205C151.221 46.265 173.699 65.8096 173.699 65.8096Z" fill="#4B47B8"/>
</svg>
