<svg width="179" height="168" viewBox="0 0 179 168" fill="none" xmlns="http://www.w3.org/2000/svg">
<path d="M19.1543 32.6431C32.6679 12.9358 47.2949 2.03357 71.194 0.257792C125.673 -3.79018 120.961 40.9255 147.627 57.7419C184.218 80.8165 187.47 135.467 164.296 150.85C116.921 182.298 36.7066 169.607 8.99014 120.083C-7.39481 90.8072 0.174591 60.3221 19.1543 32.6431Z" fill="#3935A1"/>
<path d="M153.132 129.699C153.132 129.699 135.755 133.986 127.947 133.002C121.431 132.18 114.99 127.295 116.674 121.122C118.353 114.967 126.214 114.277 132.611 115.601C141.146 117.369 153.132 129.699 153.132 129.699Z" fill="#FDE667"/>
<path d="M85.8202 146.014C85.8202 146.014 94.3957 131.621 99.4652 126.587C103.696 122.386 109.581 120.24 111.156 124.47C112.727 128.689 108.325 134.585 103.955 138.454C98.1243 143.617 85.8202 146.014 85.8202 146.014Z" fill="#30E1A6"/>
<path d="M146.744 72.8839C146.744 72.8839 138.903 95.9908 132.375 103.979C126.926 110.646 117.336 113.887 112.151 106.913C106.98 99.9593 111.817 90.5339 117.701 84.4143C125.551 76.2491 146.744 72.8839 146.744 72.8839Z" fill="#30E1A6"/>
<path d="M81.0191 71.4299C81.0191 71.4299 98.7911 85.4282 104.077 94.5557C108.489 102.174 109.074 113.674 102.014 117.931C94.9738 122.176 88.0926 114.626 84.2412 106.642C79.1024 95.9903 81.0191 71.4299 81.0191 71.4299Z" fill="#FDE667"/>
</svg>
