<svg width="179" height="159" viewBox="0 0 179 159" fill="none" xmlns="http://www.w3.org/2000/svg">
<path d="M19.0799 129.329C49.3943 173.318 107.488 164.201 146.115 129.329C163.784 113.377 178.511 101.068 178.988 75.6542C179.48 49.4305 164.836 35.2374 146.115 19.4832C126.065 2.61166 109.343 0.51001 84.2689 0.135468C57.9349 -0.257904 37.9235 -1.12651 19.0799 19.4832C-8.32065 49.4518 -4.32077 95.3715 19.0799 129.329Z" fill="#4B47B8"/>
<path d="M95.5269 22.6362C95.5269 22.6362 75.2134 27.8835 68.2239 32.1255C62.3901 35.6661 59.6144 41.8019 65.8106 45.0207C71.9891 48.2303 80.2609 45.0478 85.6077 41.237C92.7419 36.1523 95.5269 22.6362 95.5269 22.6362Z" fill="#FDE667"/>
<path d="M41.2684 92.9436C41.2684 92.9436 64.8209 77.1344 70.6507 68.2836C75.5165 60.8963 73.677 51.1496 61.9944 49.2246C50.3453 47.305 41.7306 55.2067 37.799 62.7695C32.553 72.8604 41.2684 92.9436 41.2684 92.9436Z" fill="#FFDA09"/>
<path d="M7.66079 19.7351C7.66079 19.7351 13.8019 37.1419 21.0087 43.5968C27.0238 48.9844 39.1914 52.3983 47.3936 48.0096C55.5723 43.6336 50.8854 36.3456 44.1896 31.2996C35.2556 24.5668 7.66079 19.7351 7.66079 19.7351Z" fill="#FFDA09"/>
</svg>
