<svg width="183" height="164" viewBox="0 0 183 164" fill="none" xmlns="http://www.w3.org/2000/svg">
<path d="M12.3116 34.5393C46.8958 -8.51989 135.092 -14.4121 162.779 34.5392C177.385 60.3636 188.852 92.0372 179.767 120.882C165.484 166.234 122.058 169.52 80.2645 159.055C51.1512 151.764 22.6986 143.662 12.3114 112.248C1.34393 79.0791 -8.7874 60.8086 12.3116 34.5393Z" fill="#6D6AD7"/>
<path d="M11.3625 40.1971C11.3625 40.1971 27.4968 47.5534 33.0483 53.5004C37.6819 58.464 39.8865 67.0658 34.9651 71.5783C30.0577 76.0779 23.4877 71.6163 19.2409 66.2739C13.5744 59.1456 11.3625 40.1971 11.3625 40.1971Z" fill="#4B47B8"/>
<path d="M54.4579 138.762C54.4579 138.762 35.7509 116.599 31.1205 104.191C27.2557 93.8341 28.7168 80.1702 37.9959 77.4714C47.2484 74.7804 54.0907 85.8579 57.2135 96.4603C61.3802 110.607 54.4579 138.762 54.4579 138.762Z" fill="#252363"/>
<path d="M81.1516 36.1288C81.1516 36.1288 76.2739 60.5316 70.5498 69.5808C65.7722 77.1337 56.1079 81.9198 49.5931 75.7673C43.0971 69.6324 46.8197 59.4153 52.138 52.3412C59.234 42.9024 81.1516 36.1288 81.1516 36.1288Z" fill="#4B47B8"/>
</svg>
