<svg width="390" height="380" viewBox="0 0 390 380" fill="none" xmlns="http://www.w3.org/2000/svg">
<path d="M128.253 108.693C101.211 85.334 102.108 16.7724 102.108 16.7724C102.108 16.7724 172.049 44.7088 185.465 75.4015C194.835 96.8383 176.418 117.384 176.418 117.384C176.418 117.384 147.473 125.296 128.253 108.693Z" fill="#252363"/>
<path d="M104.843 229.613C68.8689 197.859 70.0615 104.66 70.0615 104.66C70.0615 104.66 163.104 142.636 180.952 184.358C193.417 213.498 168.917 241.426 168.917 241.426C168.917 241.426 130.411 252.181 104.843 229.613Z" fill="#252363"/>
<path d="M87.7537 344.888C45.0539 313.62 46.4695 221.847 46.4695 221.847C46.4695 221.847 156.908 259.241 178.093 300.325C192.888 329.019 163.807 356.52 163.807 356.52C163.807 356.52 118.102 367.111 87.7537 344.888Z" fill="#252363"/>
<path d="M264.091 108.741C291.133 85.3817 290.237 16.8201 290.237 16.8201C290.237 16.8201 220.296 44.7566 206.88 75.4493C197.51 96.886 215.927 117.431 215.927 117.431C215.927 117.431 244.872 125.344 264.091 108.741Z" fill="#252363"/>
<path d="M285.549 229.678C321.523 197.924 320.331 104.725 320.331 104.725C320.331 104.725 227.288 142.701 209.44 184.423C196.975 213.562 221.475 241.491 221.475 241.491C221.475 241.491 259.981 252.246 285.549 229.678Z" fill="#252363"/>
<path d="M302.246 344.952C344.946 313.684 343.531 221.911 343.531 221.911C343.531 221.911 233.092 259.305 211.907 300.389C197.112 329.083 226.193 356.584 226.193 356.584C226.193 356.584 271.898 367.175 302.246 344.952Z" fill="#252363"/>
</svg>
