<svg width="167" height="359" viewBox="0 0 167 359" fill="none" xmlns="http://www.w3.org/2000/svg">
<path d="M58.1652 5.31452C58.1652 5.31452 74.8816 9.10456 77.931 16.6077C79.1546 19.6184 78.7062 24.444 77.8729 25.4569C76.7105 26.8698 72.4188 27.5765 69.5353 26.3389C60.4601 22.4436 58.1652 5.31452 58.1652 5.31452Z" fill="#3935A1"/>
<path d="M107.702 5.20584C107.702 5.20584 90.9854 8.99588 87.9359 16.499C86.7123 19.5097 87.1607 24.3353 87.994 25.3482C89.1564 26.7611 93.4481 27.4678 96.3316 26.2302C105.407 22.3349 107.702 5.20584 107.702 5.20584Z" fill="#3935A1"/>
<path d="M32.6486 28.3665C32.6486 28.3665 64.7623 27.5536 73.653 38.9218C77.2205 43.4835 78.5525 51.8357 77.4867 53.9081C76 56.799 68.503 59.8476 62.7036 59.0007C44.4511 56.3352 32.6486 28.3665 32.6486 28.3665Z" fill="#3935A1"/>
<path d="M132.384 28.3665C132.384 28.3665 100.27 27.5536 91.3791 38.9218C87.8116 43.4835 86.4796 51.8357 87.5454 53.9081C89.0321 56.799 96.5291 59.8476 102.329 59.0007C120.581 56.3352 132.384 28.3665 132.384 28.3665Z" fill="#3935A1"/>
<path d="M28.028 191.64C40.4727 129.97 21.8074 64.0075 82.818 64.0074C139.782 64.0074 123.605 128.316 138.446 191.64C153.287 254.964 182.893 280.28 156.346 324.291C128.308 370.776 41.2771 370.363 11.535 324.291C-17.0162 280.065 14.8005 257.19 28.028 191.64Z" fill="#4B47B8"/>
<path d="M82.5945 64.009C82.5945 64.009 96.0371 63.7848 104.877 68.6636C120.338 77.1969 124.885 93.4879 127.614 109.391C132.371 137.12 130.828 152.446 137.618 187.743C143.288 217.222 160.15 250.968 164.902 271.525C171.269 299.065 163.538 327.072 136.708 344.447C109.879 361.822 82.5945 358.798 82.5945 358.798V64.009Z" fill="#252363"/>
<ellipse cx="105.285" cy="294.065" rx="9.07632" ry="4.63825" fill="#3935A1"/>
<ellipse cx="105.285" cy="272.729" rx="9.07632" ry="4.63825" fill="#3935A1"/>
<ellipse cx="105.285" cy="252.321" rx="9.07632" ry="4.63825" fill="#3935A1"/>
</svg>
